<svg width="128" height="128" viewBox="0 0 128 128" fill="none" xmlns="http://www.w3.org/2000/svg">
<path d="M89.168 105.344L85.7547 78.016C85.271 74.1452 83.3898 70.5844 80.4649 68.0033C77.5401 65.4222 73.773 63.9985 69.872 64H58.1174C54.2183 64.0011 50.4538 65.4259 47.5311 68.0068C44.6085 70.5877 42.7289 74.147 42.2454 78.016L38.8267 105.344C38.6391 106.845 38.773 108.37 39.2197 109.815C39.6663 111.261 40.4154 112.595 41.4171 113.729C42.4189 114.863 43.6505 115.771 45.0301 116.392C46.4096 117.014 47.9056 117.334 49.4187 117.333H78.5814C80.094 117.334 81.5894 117.012 82.9683 116.39C84.3473 115.769 85.5782 114.861 86.5794 113.727C87.5806 112.593 88.3292 111.259 88.7755 109.814C89.2218 108.369 89.3556 106.845 89.168 105.344Z" stroke="#4E6EE0" stroke-width="5" stroke-linecap="round" stroke-linejoin="round"/>
<path d="M64 42.6667C72.8366 42.6667 80 35.5032 80 26.6667C80 17.8301 72.8366 10.6667 64 10.6667C55.1634 10.6667 48 17.8301 48 26.6667C48 35.5032 55.1634 42.6667 64 42.6667Z" stroke="#4E6EE0" stroke-width="5"/>
<path d="M21.3334 58.6667C27.2245 58.6667 32.0001 53.891 32.0001 48C32.0001 42.109 27.2245 37.3333 21.3334 37.3333C15.4424 37.3333 10.6667 42.109 10.6667 48C10.6667 53.891 15.4424 58.6667 21.3334 58.6667Z" stroke="#4E6EE0" stroke-width="5"/>
<path d="M106.667 58.6667C112.558 58.6667 117.333 53.891 117.333 48C117.333 42.109 112.558 37.3333 106.667 37.3333C100.776 37.3333 96 42.109 96 48C96 53.891 100.776 58.6667 106.667 58.6667Z" stroke="#4E6EE0" stroke-width="5"/>
<path d="M21.3333 74.6667H19.7013C17.1763 74.6664 14.7331 75.5618 12.8062 77.1937C10.8794 78.8256 9.594 81.0881 9.17864 83.5787L7.40264 94.2453C7.14777 95.7736 7.22888 97.339 7.64034 98.8327C8.05179 100.326 8.78371 101.713 9.78518 102.895C10.7867 104.077 12.0336 105.027 13.4394 105.678C14.8452 106.33 16.376 106.667 17.9253 106.667H37.3333" stroke="#4E6EE0" stroke-width="5" stroke-linecap="round" stroke-linejoin="round"/>
<path d="M106.667 74.6667H108.299C110.824 74.6664 113.267 75.5618 115.194 77.1937C117.121 78.8256 118.406 81.0881 118.821 83.5787L120.597 94.2453C120.852 95.7736 120.771 97.339 120.36 98.8327C119.948 100.326 119.216 101.713 118.215 102.895C117.213 104.077 115.966 105.027 114.561 105.678C113.155 106.33 111.624 106.667 110.075 106.667H90.6667" stroke="#4E6EE0" stroke-width="5" stroke-linecap="round" stroke-linejoin="round"/>
</svg>
