<svg width="60" height="60" viewBox="0 0 60 60" fill="none" xmlns="http://www.w3.org/2000/svg">
<path d="M54.9465 45.0661V44.5661H54.9465V25.6046V25.1046H54.4465H43.197H42.4072L42.745 25.8185C43.5806 27.5842 44.0503 29.5535 44.0503 31.6309C44.0503 39.1749 37.8866 45.3158 30.3071 45.3158C22.7274 45.3158 16.5638 39.1749 16.5638 31.6309C16.5638 29.5535 17.0336 27.5842 17.869 25.8184L18.2068 25.1046H17.417H5.55371H5.05371V25.6046V45.0661C5.05371 50.5284 9.51468 54.9688 14.9949 54.9688H45.0054C50.4856 54.9688 54.9465 50.5283 54.9465 45.0661ZM54.4465 20.5737H54.9465V20.0737V14.9336C54.9465 9.47079 50.4856 5.03098 45.0054 5.03098H14.9949C9.51471 5.03098 5.05371 9.47079 5.05371 14.9336V20.0737V20.5737H5.55371H22.0648H22.2241L22.3541 20.4815C24.6011 18.8875 27.3445 17.9463 30.3072 17.9463C33.2698 17.9463 36.0128 18.8874 38.2605 20.4816L38.3904 20.5737H38.5498H54.4465ZM14.9949 0.5H45.0053C52.9992 0.5 59.5 6.97734 59.5 14.9335V45.0662C59.5 53.0219 52.9992 59.5 45.0053 59.5H14.9949C7.001 59.5 0.5 53.0219 0.5 45.0662V14.9336C0.5 6.97735 7.00098 0.5 14.9949 0.5ZM30.3072 25.2427C26.7725 25.2427 23.8944 28.1064 23.8944 31.631C23.8944 35.1563 26.7726 38.0194 30.3072 38.0194C33.8419 38.0194 36.7199 35.1562 36.7199 31.631C36.7199 28.1065 33.8419 25.2427 30.3072 25.2427ZM43.2806 9.38543H48.4286C49.071 9.38543 49.5947 9.91016 49.5947 10.5447V15.6719C49.5947 16.3064 49.0709 16.8312 48.4286 16.8312H43.2806C42.6383 16.8312 42.1145 16.3064 42.1145 15.6719V10.5447C42.1145 9.91016 42.6383 9.38543 43.2806 9.38543Z" stroke="#0050AD"/>
</svg>
