<svg width="43" height="39" viewBox="0 0 43 39" fill="none" xmlns="http://www.w3.org/2000/svg">
<path d="M13.4375 7.96073H14.625H14.9375H16.125H26.875H28.0625H28.375H29.5625H38.9688C39.6045 7.96073 40.2376 8.23081 40.7218 8.75053C41.2094 9.27384 41.5 10.0049 41.5 10.7875V13.6487L22.1251 19.193C21.715 19.3102 21.2855 19.3103 20.8753 19.1931C20.8752 19.1931 20.875 19.193 20.8749 19.193L1.5 13.6487V10.7875C1.5 10.0049 1.79064 9.27384 2.2782 8.75053C2.76243 8.23081 3.39554 7.96073 4.03125 7.96073H13.4375Z" stroke="white" stroke-width="3"/>
<path d="M2.2782 35.9006C1.79064 35.3772 1.5 34.6462 1.5 33.8636V19.5551L20.74 25.0569C21.237 25.1993 21.7621 25.1994 22.2591 25.0571C22.2593 25.0571 22.2595 25.057 22.2598 25.0569C22.2598 25.0569 22.2599 25.0569 22.26 25.0569L41.5 19.5551V33.8636C41.5 34.6462 41.2094 35.3772 40.7218 35.9006C40.2376 36.4203 39.6045 36.6904 38.9688 36.6904H4.03125C3.39554 36.6904 2.76243 36.4203 2.2782 35.9006Z" stroke="white" stroke-width="3"/>
</svg>
