<svg width="43" height="39" viewBox="0 0 43 39" fill="none" xmlns="http://www.w3.org/2000/svg">
<path d="M39.4167 36.4284H40.249C40.0769 36.4778 39.9088 36.511 39.7608 36.5326C39.6392 36.5502 39.5406 36.5586 39.4774 36.5626C39.446 36.5645 39.4241 36.5653 39.4133 36.5657C39.4113 36.5657 39.4096 36.5658 39.4084 36.5658H3.59158C3.59036 36.5658 3.58872 36.5657 3.58668 36.5657C3.57586 36.5653 3.55397 36.5645 3.52262 36.5626C3.45944 36.5586 3.36081 36.5502 3.23919 36.5326C3.09122 36.511 2.92314 36.4778 2.75101 36.4284H3.58333H39.4167ZM40.9223 36.1324L40.9166 34.9214C40.911 33.6998 40.1587 30.9853 37.4212 28.5981C34.7448 26.2641 29.9649 24.0662 21.5 24.0662C13.0314 24.0662 8.25509 26.2642 5.57879 28.5981C2.83858 30.9877 2.09471 33.7012 2.0834 34.9144L2.07208 36.1287C1.93975 36.0407 1.83294 35.9429 1.75157 35.8365C1.62792 35.6747 1.5 35.4137 1.5 34.9409C1.5 33.8341 2.19123 31.1141 5.01712 28.6498C7.81206 26.2124 12.8036 23.9413 21.5 23.9413C30.1964 23.9413 35.1879 26.2124 37.9829 28.6498C40.8088 31.1141 41.5 33.8341 41.5 34.9409C41.5 35.4137 41.3721 35.6747 41.2484 35.8365C41.1659 35.9444 41.0572 36.0435 40.9223 36.1324ZM28.1155 15.4402C26.3916 16.9435 24.0145 17.8165 21.5 17.8165C18.9855 17.8165 16.6084 16.9435 14.8845 15.4402C13.1671 13.9425 12.25 11.9589 12.25 9.9418C12.25 7.92474 13.1671 5.94108 14.8845 4.44342C16.6084 2.94007 18.9855 2.06714 21.5 2.06714C24.0145 2.06714 26.3916 2.94007 28.1155 4.44342C29.8329 5.94108 30.75 7.92474 30.75 9.9418C30.75 11.9589 29.8329 13.9425 28.1155 15.4402ZM27.5535 15.4916C29.1961 14.0591 30.1667 12.0686 30.1667 9.9418C30.1667 7.815 29.1961 5.82452 27.5535 4.39203C25.9173 2.96523 23.7373 2.19203 21.5 2.19203C19.2627 2.19203 17.0826 2.96523 15.4465 4.39203C13.8039 5.82452 12.8333 7.815 12.8333 9.9418C12.8333 12.0686 13.8039 14.0591 15.4465 15.4916C17.0826 16.9184 19.2627 17.6916 21.5 17.6916C23.7373 17.6916 25.9173 16.9184 27.5535 15.4916Z" fill="white" stroke="white" stroke-width="3"/>
</svg>
