<svg width="43" height="39" viewBox="0 0 43 39" fill="none" xmlns="http://www.w3.org/2000/svg">
<path d="M10.9632 3.14388L10.9632 3.14385C10.6997 2.84859 10.3551 2.59231 9.94398 2.40297C9.53276 2.21357 9.07162 2.09899 8.59209 2.07287C8.11256 2.04675 7.63505 2.11022 7.19349 2.25568C6.7521 2.40107 6.36503 2.62219 6.05291 2.89392C6.0528 2.89401 6.0527 2.8941 6.0526 2.89419L3.27439 5.31716C1.66672 6.71927 1.10259 8.66227 1.79005 10.3691C4.19209 16.3214 8.10742 21.7445 13.2628 26.2278L13.266 26.2305C18.4077 30.7274 24.6581 34.1685 31.5591 36.2862L31.5594 36.2863C33.8094 36.9772 36.2475 36.3554 37.8656 34.9442L40.6446 32.5205L40.6454 32.5198C41.8702 31.4531 41.7944 29.752 40.3502 28.772L34.1532 24.5673L10.9632 3.14388ZM10.9632 3.14388L15.7872 8.54873C16.3482 9.1778 16.5111 9.94208 16.3114 10.639L16.3113 10.6393M10.9632 3.14388L16.3113 10.6393M16.3113 10.6393L14.8411 15.7727L14.8409 15.7734M16.3113 10.6393L14.8409 15.7734M14.8409 15.7734C14.6837 16.3235 14.6925 16.9033 14.8654 17.448L16.2951 16.9942M14.8409 15.7734L16.2951 16.9942M16.2951 16.9942L14.8654 17.448C15.0375 17.9904 15.3598 18.46 15.7746 18.8225L15.7756 18.8234L22.3792 24.5826L22.3798 24.5831M16.2951 16.9942L22.3798 24.5831M22.3798 24.5831C22.7946 24.9446 23.2919 25.1915 23.816 25.3179C24.3402 25.4442 24.8898 25.4499 25.4163 25.3348L31.2987 24.0528L31.2989 24.0528M22.3798 24.5831L31.2989 24.0528M31.2989 24.0528C31.7938 23.9449 32.3129 23.9363 32.8132 24.0283M31.2989 24.0528L32.8132 24.0283M32.8132 24.0283C33.3134 24.1203 33.7705 24.3081 34.1525 24.5668L32.8132 24.0283Z" stroke="white" stroke-width="3"/>
</svg>
