<svg width="128" height="128" viewBox="0 0 128 128" fill="none" xmlns="http://www.w3.org/2000/svg">
<path d="M64.0001 80C54.1867 80 53.3334 75.4133 53.3334 74.6667H42.6667C42.6667 79.5733 46.1867 88.2667 58.6667 90.24V96H69.3334V90.24C80.0001 88.4267 85.3334 81.5467 85.3334 74.6667C85.3334 68.6933 82.5601 58.6667 64.0001 58.6667C53.3334 58.6667 53.3334 55.3067 53.3334 53.3333C53.3334 51.36 57.0667 48 64.0001 48C70.9334 48 71.4134 51.4133 71.4667 53.3333H82.1334C82.0613 49.7 80.7546 46.1995 78.4281 43.4078C76.1017 40.616 72.8942 38.6994 69.3334 37.9733V32H58.6667V37.8133C48.0001 39.5733 42.6667 46.4533 42.6667 53.3333C42.6667 59.3067 45.4401 69.3333 64.0001 69.3333C74.6667 69.3333 74.6667 72.96 74.6667 74.6667C74.6667 76.3733 71.3601 80 64.0001 80Z" fill="#4E6EE0"/>
<path d="M26.6667 10.6667H10.6667V21.3333H21.3334V112C21.3334 113.414 21.8953 114.771 22.8955 115.771C23.8957 116.771 25.2523 117.333 26.6667 117.333H101.333C102.748 117.333 104.104 116.771 105.105 115.771C106.105 114.771 106.667 113.414 106.667 112V21.3333H117.333V10.6667H26.6667ZM96.0001 106.667H32.0001V21.3333H96.0001V106.667Z" fill="#4E6EE0"/>
</svg>
