<svg width="120" height="112" viewBox="0 0 120 112" fill="none" xmlns="http://www.w3.org/2000/svg">
<path d="M85.168 97.344L81.7547 70.016C81.2709 66.1452 79.3898 62.5844 76.4649 60.0033C73.54 57.4222 69.7729 55.9985 65.872 56H54.1173C50.2182 56.0011 46.4537 57.4259 43.5311 60.0068C40.6084 62.5877 38.7288 66.147 38.2453 70.016L34.8266 97.344C34.639 98.8454 34.773 100.37 35.2196 101.815C35.6662 103.261 36.4153 104.595 37.4171 105.729C38.4189 106.863 39.6504 107.771 41.03 108.392C42.4096 109.014 43.9056 109.334 45.4186 109.333H74.5813C76.0939 109.334 77.5893 109.012 78.9683 108.39C80.3472 107.769 81.5781 106.861 82.5793 105.727C83.5805 104.593 84.3291 103.259 84.7754 101.814C85.2217 100.369 85.3555 98.845 85.168 97.344Z" stroke="#3789CA" stroke-width="5" stroke-linecap="round" stroke-linejoin="round"/>
<path d="M60 34.6667C68.8365 34.6667 76 27.5032 76 18.6667C76 9.83011 68.8365 2.66666 60 2.66666C51.1634 2.66666 44 9.83011 44 18.6667C44 27.5032 51.1634 34.6667 60 34.6667Z" stroke="#3789CA" stroke-width="5"/>
<path d="M17.3333 50.6667C23.2243 50.6667 28 45.891 28 40C28 34.109 23.2243 29.3333 17.3333 29.3333C11.4423 29.3333 6.66663 34.109 6.66663 40C6.66663 45.891 11.4423 50.6667 17.3333 50.6667Z" stroke="#3789CA" stroke-width="5"/>
<path d="M102.667 50.6667C108.558 50.6667 113.333 45.891 113.333 40C113.333 34.109 108.558 29.3333 102.667 29.3333C96.7756 29.3333 92 34.109 92 40C92 45.891 96.7756 50.6667 102.667 50.6667Z" stroke="#3789CA" stroke-width="5"/>
<path d="M17.3333 66.6667H15.7013C13.1763 66.6663 10.7331 67.5618 8.80624 69.1937C6.87943 70.8255 5.594 73.088 5.17864 75.5787L3.40264 86.2453C3.14777 87.7736 3.22888 89.339 3.64034 90.8327C4.05179 92.3264 4.78371 93.7126 5.78518 94.8947C6.78665 96.0769 8.03364 97.0267 9.4394 97.6781C10.8452 98.3295 12.376 98.6668 13.9253 98.6667H33.3333" stroke="#3789CA" stroke-width="5" stroke-linecap="round" stroke-linejoin="round"/>
<path d="M102.667 66.6667H104.299C106.824 66.6663 109.267 67.5618 111.194 69.1937C113.12 70.8255 114.406 73.088 114.821 75.5787L116.597 86.2453C116.852 87.7736 116.771 89.339 116.36 90.8327C115.948 92.3264 115.216 93.7126 114.215 94.8947C113.213 96.0769 111.966 97.0267 110.561 97.6781C109.155 98.3295 107.624 98.6668 106.075 98.6667H86.6666" stroke="#3789CA" stroke-width="5" stroke-linecap="round" stroke-linejoin="round"/>
</svg>
