<svg width="128" height="128" viewBox="0 0 128 128" fill="none" xmlns="http://www.w3.org/2000/svg">
<path d="M64 80C54.1867 80 53.3333 75.4133 53.3333 74.6667H42.6667C42.6667 79.5733 46.1867 88.2667 58.6667 90.24V96H69.3333V90.24C80 88.4267 85.3333 81.5467 85.3333 74.6667C85.3333 68.6933 82.56 58.6667 64 58.6667C53.3333 58.6667 53.3333 55.3067 53.3333 53.3333C53.3333 51.36 57.0667 48 64 48C70.9333 48 71.4133 51.4133 71.4667 53.3333H82.1333C82.0612 49.7 80.7545 46.1995 78.428 43.4078C76.1016 40.616 72.8941 38.6994 69.3333 37.9733V32H58.6667V37.8133C48 39.5733 42.6667 46.4533 42.6667 53.3333C42.6667 59.3067 45.44 69.3333 64 69.3333C74.6667 69.3333 74.6667 72.96 74.6667 74.6667C74.6667 76.3733 71.36 80 64 80Z" fill="#2581C4"/>
<path d="M26.6667 10.6667H10.6667V21.3333H21.3333V112C21.3333 113.414 21.8952 114.771 22.8954 115.771C23.8956 116.771 25.2522 117.333 26.6667 117.333H101.333C102.748 117.333 104.104 116.771 105.105 115.771C106.105 114.771 106.667 113.414 106.667 112V21.3333H117.333V10.6667H26.6667ZM96 106.667H32V21.3333H96V106.667Z" fill="#3689C9"/>
</svg>
